<?xml version="1.0" encoding="UTF-8" standalone="no"?>
<svg
   xmlns:dc="http://purl.org/dc/elements/1.1/"
   xmlns:cc="http://creativecommons.org/ns#"
   xmlns:rdf="http://www.w3.org/1999/02/22-rdf-syntax-ns#"
   xmlns:svg="http://www.w3.org/2000/svg"
   xmlns="http://www.w3.org/2000/svg"
   xmlns:sodipodi="http://sodipodi.sourceforge.net/DTD/sodipodi-0.dtd"
   xmlns:inkscape="http://www.inkscape.org/namespaces/inkscape"
   width="9.9885931mm"
   height="9.9885931mm"
   viewBox="0 0 9.9885931 9.9885931"
   version="1.1"
   id="svg8"
   inkscape:version="1.0.1 (3bc2e813f5, 2020-09-07)"
   sodipodi:docname="pokeradar-ico.svg">
  <defs
     id="defs2" />
  <sodipodi:namedview
     id="base"
     pagecolor="#ffffff"
     bordercolor="#666666"
     borderopacity="1.0"
     inkscape:pageopacity="0.0"
     inkscape:pageshadow="2"
     inkscape:zoom="7.9195959"
     inkscape:cx="25.010441"
     inkscape:cy="30.341407"
     inkscape:document-units="mm"
     inkscape:current-layer="layer1"
     inkscape:document-rotation="0"
     showgrid="false"
     fit-margin-top="0"
     fit-margin-left="0"
     fit-margin-right="0"
     fit-margin-bottom="0"
     inkscape:window-width="1366"
     inkscape:window-height="743"
     inkscape:window-x="0"
     inkscape:window-y="25"
     inkscape:window-maximized="0" />
  <metadata
     id="metadata5">
    <rdf:RDF>
      <cc:Work
         rdf:about="">
        <dc:format>image/svg+xml</dc:format>
        <dc:type
           rdf:resource="http://purl.org/dc/dcmitype/StillImage" />
        <dc:title></dc:title>
      </cc:Work>
    </rdf:RDF>
  </metadata>
  <g
     inkscape:label="Layer 1"
     inkscape:groupmode="layer"
     id="layer1"
     transform="translate(-60.342527,-134.40766)">
    <circle
       style="fill:#fff2f2;stroke:none;stroke-width:0.407284;stroke-linecap:round;stroke-linejoin:round;fill-opacity:1"
       id="path911"
       cx="65.336823"
       cy="139.40196"
       r="4.1620002" />
    <g
       id="g869"
       style="fill:#ff3f3f;fill-opacity:1"
       transform="matrix(0.41619136,0,0,0.41619136,60.342527,134.40766)">
      <g
         id="g867"
         style="fill:#ff3f3f;fill-opacity:1">
        <path
           d="M 19.74,18.33 C 21.15,16.6 22,14.4 22,12 22,6.48 17.52,2 12,2 6.48,2 2,6.48 2,12 c 0,5.52 4.48,10 10,10 2.4,0 4.6,-0.85 6.33,-2.26 0.27,-0.22 0.53,-0.46 0.78,-0.71 0.03,-0.03 0.05,-0.06 0.07,-0.08 0.2,-0.2 0.39,-0.41 0.56,-0.62 z M 12,20 C 7.59,20 4,16.41 4,12 4,7.59 7.59,4 12,4 c 4.41,0 8,3.59 8,8 0,1.85 -0.63,3.54 -1.69,4.9 l -1.43,-1.43 c 0.69,-0.98 1.1,-2.17 1.1,-3.46 0,-3.31 -2.69,-6 -6,-6 -3.31,0 -6,2.69 -6,6 0,3.31 2.69,6 6,6 1.3,0 2.51,-0.42 3.49,-1.13 l 1.42,1.42 C 15.54,19.37 13.85,20 12,20 Z m 1.92,-7.49 c 0.17,-0.66 0.02,-1.38 -0.49,-1.9 l -0.02,-0.02 c -0.77,-0.77 -2,-0.78 -2.78,-0.04 -0.01,0.01 -0.03,0.02 -0.05,0.04 -0.78,0.78 -0.78,2.05 0,2.83 l 0.02,0.02 c 0.52,0.51 1.25,0.67 1.91,0.49 l 1.51,1.51 c -0.6,0.36 -1.29,0.58 -2.04,0.58 -2.21,0 -4,-1.79 -4,-4 0,-2.21 1.79,-4 4,-4 2.21,0 4,1.79 4,4 0,0.73 -0.21,1.41 -0.56,2 z"
           id="path865"
           style="fill:#ff3f3f;fill-opacity:1" />
      </g>
    </g>
    <g
       id="g863"
       style="fill:none"
       transform="matrix(0.41619136,0,0,0.41619136,60.342527,134.40766)">
      <path
         d="M 0,0 H 24 V 24 H 0 Z"
         fill="none"
         id="path861"
         style="fill:none" />
    </g>
    <path
       d="m 66.377302,139.40196 c 0,0.57434 -0.466135,1.04047 -1.040479,1.04047 -0.574344,0 -1.040478,-0.46613 -1.040478,-1.04047 0,-0.57435 0.466134,-1.04048 1.040478,-1.04048 0.574344,0 1.040479,0.46613 1.040479,1.04048 z m 3.121435,0 c 0,2.29737 -1.864537,4.16191 -4.161914,4.16191 -2.297376,0 -4.161913,-1.86454 -4.161913,-4.16191 0,-2.29738 1.864537,-4.16192 4.161913,-4.16192 2.297377,0 4.161914,1.86454 4.161914,4.16192 z m -0.832383,0 h -1.664765 c 0,-0.91979 -0.744983,-1.66477 -1.664766,-1.66477 -0.919783,0 -1.664765,0.74498 -1.664765,1.66477 h -1.664766 c 0,1.8354 1.494127,3.32953 3.329531,3.32953 1.835404,0 3.329531,-1.49413 3.329531,-3.32953 z"
       id="path847"
       style="fill:#ff3f3f;stroke-width:0.416191;fill-opacity:1" />
  </g>
</svg>
